<svg width="21" height="16" viewBox="0 0 21 16" fill="none" xmlns="http://www.w3.org/2000/svg">
<g clip-path="url(#clip0_617_35)">
<path d="M19.7587 8.58037C19.8793 8.45971 19.9397 8.27871 19.9698 8.09772C20 7.88656 19.9397 7.64523 19.7587 7.43407C19.7587 7.43407 19.7587 7.43407 19.7587 7.4039C17.3454 5.0208 14.9623 2.63769 12.6094 0.254583C11.825 -0.529731 10.6486 0.676905 11.4027 1.46122C13.3032 3.36167 15.2036 5.26212 17.1041 7.16258C11.6742 7.16258 6.24434 7.16258 0.81448 7.16258C-0.271493 7.16258 -0.271493 8.85187 0.81448 8.85187C6.24434 8.85187 11.6742 8.85187 17.1041 8.85187C15.2036 10.7523 13.3032 12.6528 11.4027 14.5532C10.6184 15.3375 11.825 16.514 12.6094 15.7599C14.9623 13.3466 17.3454 10.9635 19.7587 8.58037C19.7285 8.58037 19.7285 8.58037 19.7587 8.58037Z" fill="#242424"/>
</g>
<defs>
<clipPath id="clip0_617_35">
<rect width="20" height="15.9578" fill="white" transform="translate(0.0634766 0.0211182)"/>
</clipPath>
</defs>
</svg>
