<svg width="42" height="35" viewBox="0 0 42 35" fill="none" xmlns="http://www.w3.org/2000/svg">
<path d="M7.20247 5.40885C5.63247 5.40885 4.12247 5.43885 2.61247 5.40885C1.39247 5.37885 0.402471 4.56885 0.102471 3.46885C-0.207529 2.31885 0.192469 1.08885 1.21247 0.508854C1.71247 0.228854 2.33247 0.0488545 2.90247 0.0388545C5.04247 -0.0111455 7.18247 -0.0111457 9.33247 0.0288543C10.9825 0.0588543 11.9325 0.928854 12.2125 2.57885C13.2225 8.65885 14.2325 14.7489 15.2525 20.8289C15.3025 21.0989 15.3825 21.3689 15.4525 21.6889C18.0125 21.6889 20.5325 21.6889 23.0425 21.6889C25.9425 21.6889 28.8425 21.6989 31.7325 21.6689C32.0225 21.6689 32.5325 21.4389 32.5725 21.2389C33.4225 17.2089 34.2125 13.1689 35.0425 9.03885C34.2425 9.03885 33.5225 9.03885 32.8025 9.03885C28.6725 9.03885 24.5525 9.03885 20.4225 9.03885C19.2725 9.03885 18.4025 8.53885 17.9025 7.51885C17.4425 6.56885 17.5225 5.60885 18.1425 4.74885C18.7225 3.93885 19.5625 3.63885 20.5225 3.63885C26.4125 3.63885 32.3025 3.61885 38.1925 3.64885C40.1925 3.65885 41.3225 5.06885 40.9425 7.04885C39.7925 12.9489 38.6125 18.8389 37.4125 24.7189C37.0925 26.3089 36.1825 27.0689 34.5725 27.0689C27.4825 27.0889 20.4025 27.0889 13.3125 27.0689C11.4925 27.0689 10.6425 26.1689 10.3225 24.2089C9.30247 17.9989 8.26247 11.7989 7.21247 5.43885L7.20247 5.40885Z" fill="#60B8BC"/>
<path d="M14.9125 28.8688C15.5125 28.8688 16.1125 28.8488 16.7025 28.8688C18.1825 28.9288 19.3025 29.9888 19.3925 31.3788C19.4825 32.8688 18.5025 34.0988 16.9725 34.2188C15.6025 34.3188 14.2025 34.3188 12.8325 34.2188C11.3525 34.1088 10.3625 32.8888 10.4125 31.4688C10.4725 30.0488 11.5525 28.9488 13.0225 28.8788C13.6525 28.8488 14.2825 28.8788 14.9125 28.8788V28.8688Z" fill="#60B8BC"/>
<path d="M32.9826 28.8688C33.6126 28.8688 34.2426 28.8388 34.8726 28.8688C36.3026 28.9588 37.3526 30.0188 37.4326 31.4088C37.5126 32.8488 36.5526 34.0788 35.0726 34.1988C33.6726 34.3088 32.2426 34.3088 30.8326 34.1988C29.3526 34.0888 28.4026 32.8688 28.4626 31.4188C28.5226 30.0188 29.6226 28.9288 31.1026 28.8588C31.7326 28.8288 32.3626 28.8588 32.9926 28.8588L32.9826 28.8688Z" fill="#60B8BC"/>
</svg>
