<svg width="26" height="25" viewBox="0 0 26 25" fill="none" xmlns="http://www.w3.org/2000/svg">
<path d="M23.492 18.75C24.2003 18.75 24.7974 19 25.2833 19.5C25.7692 20 26.008 20.5833 25.9998 21.25L16.0797 25L7.43204 22.5V11.25H9.84103L18.8222 14.6125C19.4646 14.8708 19.7858 15.3375 19.7858 16.0125C19.7858 16.4042 19.6458 16.7458 19.3658 17.0375C19.0858 17.3292 18.7316 17.4833 18.3034 17.5H14.8443L12.6824 16.6625L12.2747 17.8375L14.8443 18.75H23.492ZM18.5505 1.5375C19.4235 0.5125 20.5353 0 21.886 0C23.0061 0 23.9532 0.416667 24.7274 1.25C25.5015 2.08333 25.9133 3.04167 25.9627 4.125C25.9627 4.98333 25.5509 6.00833 24.7274 7.2C23.9038 8.39167 23.0925 9.3875 22.2937 10.1875C21.4948 10.9875 20.247 12.175 18.5505 13.75C16.8374 12.175 15.5773 10.9875 14.7702 10.1875C13.9631 9.3875 13.1518 8.39167 12.3365 7.2C11.5211 6.00833 11.1217 4.98333 11.1382 4.125C11.1382 2.99167 11.5376 2.03333 12.3365 1.25C13.1354 0.466667 14.099 0.05 15.2273 0C16.545 0 17.6527 0.5125 18.5505 1.5375ZM0 11.25H4.96128V25H0V11.25Z" fill="#33C2C9" fill-opacity="0.5"/>
</svg>
