<svg width="21" height="28" viewBox="0 0 21 28" fill="none" xmlns="http://www.w3.org/2000/svg">
<path d="M9.05496 0.419908C9.55983 0.0973993 10.164 -0.0462872 10.7654 0.0131037C11.3668 0.0724946 11.9287 0.331325 12.3562 0.745904L17.9263 6.14811C19.3264 7.50694 20.3018 9.22208 20.7399 11.0956C21.178 12.9691 21.0609 14.9245 20.4021 16.7362C19.7433 18.5479 18.5697 20.142 17.0167 21.3344C15.4637 22.5268 13.5947 23.2691 11.6254 23.4754V26.9085C11.6254 27.198 11.5068 27.4756 11.2958 27.6803C11.0847 27.885 10.7985 28 10.5 28C10.2015 28 9.91527 27.885 9.70421 27.6803C9.49315 27.4756 9.37458 27.198 9.37458 26.9085V23.4754C7.40528 23.2691 5.53628 22.5268 3.98331 21.3344C2.43034 20.142 1.25673 18.5479 0.597927 16.7362C-0.0608726 14.9245 -0.177993 12.9691 0.260084 11.0956C0.698161 9.22208 1.67358 7.50694 3.07374 6.14811L8.64381 0.745904C8.77066 0.625668 8.90825 0.516576 9.05496 0.419908ZM10.5 11.9927C10.2015 11.9927 9.91527 12.1077 9.70421 12.3124C9.49315 12.5171 9.37458 12.7948 9.37458 13.0843V21.2778C10.1213 21.3775 10.8787 21.3775 11.6254 21.2778V13.0843C11.6254 12.7948 11.5068 12.5171 11.2958 12.3124C11.0847 12.1077 10.7985 11.9927 10.5 11.9927Z" fill="#33C2C9" fill-opacity="0.5"/>
</svg>
