<svg width="919" height="424" viewBox="0 0 919 424" fill="none" xmlns="http://www.w3.org/2000/svg">
<path d="M688.016 97.0185L653.262 62.2644L688.016 27.5102V1.83093C633.435 8.99877 581.074 35.9932 536.39 70.1227C529.271 75.5808 457.987 137.214 457.987 138.069C489.651 168.368 538.28 212.016 538.28 212.016C572.574 181.274 608.282 155.808 644.647 136.195C646.866 134.995 649.168 133.811 651.503 132.693C661.038 128.074 670.573 124.506 679.73 122.106C681.21 121.695 682.591 121.366 683.955 121.07H683.988L684.037 121.054C685.369 120.758 686.684 120.478 688.016 120.215V97.0185Z" fill="#629E4D" fill-opacity="0.3"/>
<path d="M892.644 103.66C874.906 71.7009 848.52 45.6435 814.209 26.2114C807.633 22.496 800.761 19.1093 793.758 16.1666C761.864 2.68578 729.56 -1.45711 697.88 1.25549V31.6202L667.219 62.2808L697.88 92.9414V119.18C701.069 118.818 704.242 118.571 707.366 118.456C708.845 118.407 710.276 118.374 711.722 118.374C715.816 118.374 719.959 118.604 724.085 119.048C765.81 123.405 797.901 155.939 802.126 198.141C805.891 235.69 796.569 262.964 772.748 283.958C766.566 289.416 759.99 293.624 752.658 296.847C744.964 300.233 736.58 302.453 727.061 303.686C721.57 304.393 715.635 304.754 709.437 304.754C708.878 304.754 708.303 304.738 707.744 304.721V332.686L742.498 367.44L707.744 402.194V423.583C721.964 423.353 736.169 421.955 750.093 419.358C817.481 406.83 871.963 370.597 899.566 306.908C912.093 278.006 918.554 246.836 918.768 214.285C919.08 172.758 910.301 135.537 892.628 103.693L892.644 103.66Z" fill="#C9A55F" fill-opacity="0.3"/>
<path d="M201.622 402.161L166.884 367.424L201.622 332.653V304.08C195.687 303.62 189.703 302.765 183.768 301.516C179.543 300.644 175.318 299.378 171.241 297.8C163.465 294.808 156.215 290.649 149.655 285.421L149.277 285.109C130.453 269.918 118.88 247.428 117.515 223.393C114.786 175.125 135.056 138.151 171.718 124.506C185.511 119.36 198.745 117.453 211.502 117.996V92.9414L242.163 62.2808L211.502 31.6202V0.893791C176.617 -0.84885 141.304 5.908 106.944 24.2222C77.4343 39.9552 52.6592 63.6453 33.2929 94.6676C-2.908 152.668 -9.41824 218.494 13.9266 290.336C29.15 337.141 57.9693 374.016 95.0415 394.155C127.806 411.96 164.566 420.821 201.622 421.856V402.178V402.161Z" fill="#5FC4C9" fill-opacity="0.3"/>
<path d="M457.198 292.441C447.712 302.009 437.158 312.481 426.176 322.707C380.818 364.941 331.169 400.978 269.798 415.05C250.728 419.423 231.099 421.791 211.486 421.972V398.084L180.825 367.424L211.486 336.747V304.475H212.456C219.492 304.475 226.676 303.916 233.844 302.798C249.298 300.365 264.982 295.252 280.435 287.624C315.403 270.362 345.357 245.406 372.548 219.973H372.565C372.121 219.579 371.661 219.184 371.217 218.79C371.874 219.349 372.581 219.94 373.288 220.549C379.174 225.612 387.147 232.468 396.337 240.342C397.307 241.164 398.294 242.003 399.296 242.858C402.469 245.587 405.774 248.431 409.16 251.341C409.999 252.048 410.87 252.787 411.725 253.527C418.959 259.709 426.505 266.17 434.1 272.647C434.872 273.321 435.645 273.979 436.434 274.653L457.198 292.441Z" fill="#629E4D" fill-opacity="0.3"/>
<path d="M697.88 336.747V303.916C668.205 302.025 638.63 290.189 605.224 266.745C603.695 265.676 602.15 264.575 600.588 263.441C578.131 247.149 556.89 228.851 538.28 212.066C538.28 212.066 489.634 168.401 457.987 138.119C457.609 137.757 457.198 137.329 456.787 136.853C456.771 136.82 456.738 136.787 456.705 136.754C441.975 121.021 425.715 105.436 408.223 90.6891C354.251 45.1832 288.787 8.06166 221.366 1.6665V27.5102L256.12 62.2643L221.366 97.0185V118.966C267.941 125.624 307.857 163.781 343.285 194.639C344.025 195.264 344.748 195.905 345.455 196.53C351.061 201.396 356.881 206.427 362.832 211.589C362.832 211.589 363.622 212.279 365.101 213.529C365.364 213.759 365.66 214.006 365.956 214.285C366.433 214.663 366.942 215.123 367.501 215.6C367.699 215.765 367.88 215.929 368.077 216.11C368.488 216.439 368.882 216.8 369.326 217.178C369.622 217.441 369.935 217.705 370.263 217.984C370.576 218.247 370.904 218.527 371.25 218.822C371.907 219.381 372.598 219.973 373.321 220.598C379.19 225.645 387.18 232.501 396.37 240.375C397.34 241.197 398.31 242.036 399.313 242.907C402.486 245.62 405.807 248.464 409.193 251.374C410.032 252.097 410.887 252.837 411.758 253.56C418.991 259.742 426.537 266.203 434.133 272.68C434.905 273.354 435.678 274.012 436.467 274.686C445.887 282.708 455.291 290.698 464.021 298.08C465.188 299.066 466.355 300.036 467.489 301.022C469.183 302.453 470.876 303.867 472.504 305.248C473.194 305.823 473.868 306.398 474.559 306.99C476.86 308.897 479.063 310.755 481.184 312.547C482.187 313.385 483.19 314.207 484.143 315.013C485.606 316.213 487.02 317.397 488.434 318.58C488.549 318.695 488.681 318.811 488.812 318.909C489.552 319.501 490.292 320.126 491.015 320.718C493.596 322.855 496.112 324.943 498.61 326.998C499.153 327.458 499.695 327.869 500.205 328.296C500.238 328.313 500.254 328.346 500.287 328.346C531.326 353.795 554.983 372.076 571.916 383.765C608.841 409.247 653.196 422.07 697.847 423.073V398.035L728.507 367.374L697.847 336.714L697.88 336.747Z" fill="#B4C95F" fill-opacity="0.3"/>
</svg>
