<svg width="40" height="40" viewBox="0 0 40 40" fill="none" xmlns="http://www.w3.org/2000/svg">
<g clip-path="url(#clip0_3130_9541)">
<path d="M33.5898 6.08992C33.4098 6.08992 33.2298 6.06992 33.0398 6.02992C32.8598 5.99992 32.6898 5.93992 32.5198 5.86992C32.3498 5.79992 32.1798 5.70992 32.0298 5.60992C31.8798 5.50992 31.7298 5.38992 31.6098 5.25992C31.4798 5.12992 31.3598 4.98992 31.2598 4.83992C31.1598 4.67992 31.0798 4.51992 30.9998 4.34992C30.9298 4.17992 30.8798 4.00992 30.8398 3.82992C30.7998 3.64992 30.7798 3.46992 30.7798 3.27992C30.7798 3.08992 30.7998 2.91992 30.8398 2.72992C30.8698 2.54992 30.9298 2.37992 30.9998 2.20992C31.0698 2.03992 31.1598 1.87992 31.2598 1.71992C31.3598 1.56992 31.4798 1.41992 31.6098 1.29992C31.7398 1.16992 31.8798 1.04992 32.0298 0.949917C32.1798 0.849917 32.3398 0.769917 32.5198 0.689917C32.6898 0.619917 32.8598 0.569917 33.0398 0.529917C33.3998 0.459917 33.7698 0.459917 34.1398 0.529917C34.3198 0.559917 34.4898 0.619917 34.6598 0.689917C34.8298 0.759917 34.9898 0.849917 35.1398 0.949917C35.2998 1.04992 35.4398 1.16992 35.5698 1.29992C35.6998 1.42992 35.8198 1.56992 35.9198 1.71992C36.0198 1.87992 36.0998 2.03992 36.1798 2.20992C36.2498 2.37992 36.2998 2.54992 36.3398 2.72992C36.3798 2.90992 36.3998 3.08992 36.3998 3.27992C36.3998 3.46992 36.3798 3.63992 36.3398 3.82992C36.3098 4.00992 36.2498 4.17992 36.1798 4.34992C36.1098 4.51992 36.0198 4.67992 35.9198 4.83992C35.8098 4.98992 35.6998 5.13992 35.5698 5.25992C35.4398 5.38992 35.2998 5.50992 35.1398 5.60992C34.9898 5.70992 34.8298 5.78992 34.6598 5.86992C34.4898 5.93992 34.3198 5.98992 34.1398 6.02992C33.9598 6.06992 33.7798 6.08992 33.5898 6.08992Z" fill="#60B8BC"/>
<path d="M27.96 39.6799H2.8C1.26 39.6799 0 38.4299 0 36.8799C0 35.3299 1.25 34.0799 2.8 34.0799H27.96C31.04 34.0799 33.55 31.5699 33.55 28.4899C33.55 25.4099 31.04 22.8999 27.96 22.8999H11.18C5.02 22.9099 0 17.8899 0 11.7199C0 5.54992 5.02 0.539917 11.18 0.539917H25.16C26.7 0.539917 27.96 1.78992 27.96 3.33992C27.96 4.88992 26.71 6.13992 25.16 6.13992H11.18C8.1 6.13992 5.59 8.64992 5.59 11.7299C5.59 14.8099 8.1 17.3199 11.18 17.3199H27.96C34.13 17.3199 39.14 22.3399 39.14 28.4999C39.14 34.6599 34.12 39.6799 27.96 39.6799Z" fill="#60B8BC"/>
</g>
<defs>
<clipPath id="clip0_3130_9541">
<rect width="39.14" height="39.18" fill="white" transform="translate(0 0.499878)"/>
</clipPath>
</defs>
</svg>
