<svg width="48" height="49" viewBox="0 0 48 49" fill="none" xmlns="http://www.w3.org/2000/svg">
<g clip-path="url(#clip0_3214_2954)">
<path d="M39.35 44.6399H22.57C11.78 44.6399 3 35.8599 3 25.0699C3 14.2799 11.78 5.49988 22.57 5.49988H28.16C29.7 5.49988 30.96 6.74988 30.96 8.29988C30.96 9.84988 29.71 11.0999 28.16 11.0999H22.57C14.86 11.0999 8.59 17.3699 8.59 25.0799C8.59 32.7899 14.86 39.0599 22.57 39.0599H36.55V33.4699H28.16C26.62 33.4699 25.36 32.2199 25.36 30.6699C25.36 29.1199 26.61 27.8699 28.16 27.8699H39.34C40.88 27.8699 42.14 29.1199 42.14 30.6699V41.8499C42.14 43.3899 40.89 44.6499 39.34 44.6499L39.35 44.6399Z" fill="#60B8BC"/>
<path d="M36.55 11.0899C35.82 11.0899 35.1 10.7899 34.58 10.2699C34.45 10.1399 34.33 9.99986 34.23 9.83986C34.13 9.67986 34.05 9.51986 33.97 9.34986C33.9 9.17986 33.85 9.00986 33.81 8.82986C33.77 8.64986 33.75 8.46986 33.75 8.27986C33.75 8.08986 33.77 7.91986 33.81 7.72986C33.84 7.54986 33.9 7.37986 33.97 7.20986C34.04 7.03986 34.13 6.87986 34.23 6.72986C34.33 6.56986 34.45 6.42986 34.58 6.29986C35.1 5.77986 35.82 5.47986 36.55 5.47986C37.28 5.47986 38 5.77986 38.53 6.29986C38.66 6.42986 38.78 6.56986 38.88 6.72986C38.98 6.87986 39.06 7.03986 39.14 7.20986C39.21 7.37986 39.26 7.54986 39.3 7.72986C39.34 7.90986 39.36 8.08986 39.36 8.27986C39.36 9.01986 39.06 9.72986 38.54 10.2599C38.01 10.7799 37.3 11.0799 36.56 11.0799L36.55 11.0899Z" fill="#60B8BC"/>
</g>
<defs>
<clipPath id="clip0_3214_2954">
<rect width="39.14" height="39.14" fill="white" transform="translate(3 5.49988)"/>
</clipPath>
</defs>
</svg>
