<svg width="48" height="49" viewBox="0 0 48 49" fill="none" xmlns="http://www.w3.org/2000/svg">
<g clip-path="url(#clip0_3103_9375)">
<g clip-path="url(#clip1_3103_9375)">
<path d="M35.22 44.4999H12.79C11.2555 44.4999 10 43.2543 10 41.7099V8.28986C10 6.74541 11.2455 5.49988 12.79 5.49988H34.07C35.6045 5.49988 36.86 6.74541 36.86 8.28986C36.86 9.83432 35.6145 11.0798 34.07 11.0798H15.57V38.9398H35.21C36.7445 38.9398 38 40.1854 38 41.7298C38 43.2743 36.7545 44.5198 35.21 44.5198L35.22 44.4999Z" fill="#60B8BC"/>
<path d="M35.22 44.4999H12.79C11.2555 44.4999 10 43.2543 10 41.7099V8.28986C10 6.74541 11.2455 5.49988 12.79 5.49988H34.07C35.6045 5.49988 36.86 6.74541 36.86 8.28986C36.86 9.83432 35.6145 11.0798 34.07 11.0798H15.57V38.9398H35.21C36.7445 38.9398 38 40.1854 38 41.7298C38 43.2743 36.7545 44.5198 35.21 44.5198L35.22 44.4999Z" fill="#60B8BC"/>
<path d="M35.22 44.4999H12.79C11.2555 44.4999 10 43.2543 10 41.7099V8.28986C10 6.74541 11.2455 5.49988 12.79 5.49988H34.07C35.6045 5.49988 36.86 6.74541 36.86 8.28986C36.86 9.83432 35.6145 11.0798 34.07 11.0798H15.57V38.9398H35.21C36.7445 38.9398 38 40.1854 38 41.7298C38 43.2743 36.7545 44.5198 35.21 44.5198L35.22 44.4999Z" fill="#60B8BC"/>
<path d="M25.22 27.4999H-6.21002C-7.74451 27.4999 -9 26.2543 -9 24.7099V-8.71014C-9 -10.2546 -7.75447 -11.5001 -6.21002 -11.5001H15.07C16.6045 -11.5001 17.86 -10.2546 17.86 -8.71014C17.86 -7.16568 16.6145 -5.92015 15.07 -5.92015H-3.42999V21.9398H25.21C26.7445 21.9398 28 23.1854 28 24.7298C28 26.2743 26.7545 27.5198 25.21 27.5198L25.22 27.4999Z" fill="#60B8BC"/>
<path d="M25.22 27.4999H-6.21002C-7.74451 27.4999 -9 26.2543 -9 24.7099V-8.71014C-9 -10.2546 -7.75447 -11.5001 -6.21002 -11.5001H15.07C16.6045 -11.5001 17.86 -10.2546 17.86 -8.71014C17.86 -7.16568 16.6145 -5.92015 15.07 -5.92015H-3.42999V21.9398H25.21C26.7445 21.9398 28 23.1854 28 24.7298C28 26.2743 26.7545 27.5198 25.21 27.5198L25.22 27.4999Z" fill="#60B8BC"/>
<path d="M25.22 27.4999H-6.21002C-7.74451 27.4999 -9 26.2543 -9 24.7099V-8.71014C-9 -10.2546 -7.75447 -11.5001 -6.21002 -11.5001H15.07C16.6045 -11.5001 17.86 -10.2546 17.86 -8.71014C17.86 -7.16568 16.6145 -5.92015 15.07 -5.92015H-3.42999V21.9398H25.21C26.7445 21.9398 28 23.1854 28 24.7298C28 26.2743 26.7545 27.5198 25.21 27.5198L25.22 27.4999Z" fill="#60B8BC"/>
<path d="M34.1396 27.7901C33.9602 27.7901 33.7809 27.7701 33.5916 27.7303C33.4122 27.7004 33.2428 27.6406 33.0734 27.5708C32.904 27.5011 32.7446 27.4114 32.5852 27.3118C32.4357 27.2121 32.2862 27.0926 32.1667 26.963C31.6485 26.4349 31.3496 25.7275 31.3496 24.9901C31.3496 24.8108 31.3695 24.6314 31.4094 24.4421C31.4393 24.2627 31.4991 24.0933 31.5688 23.9239C31.6386 23.7545 31.7282 23.5951 31.8279 23.4357C31.9275 23.2862 32.0471 23.1368 32.1766 23.0172C32.3062 22.8877 32.4457 22.7681 32.5951 22.6684C32.7546 22.5688 32.914 22.4891 33.0834 22.4094C33.2528 22.3396 33.4222 22.2898 33.6015 22.2499C34.5083 22.0706 35.4648 22.3596 36.1225 23.0072C36.252 23.1368 36.3716 23.2763 36.4712 23.4257C36.5709 23.5852 36.6506 23.7446 36.7303 23.914C36.8 24.0834 36.8499 24.2528 36.8897 24.4321C36.9296 24.6115 36.9495 24.7908 36.9495 24.9801C36.9495 25.7075 36.6506 26.425 36.1324 26.9531C35.6043 27.4712 34.8869 27.7701 34.1595 27.7701L34.1396 27.7901Z" fill="#60B8BC"/>
</g>
</g>
<defs>
<clipPath id="clip0_3103_9375">
<rect width="48" height="48" fill="white" transform="translate(0 0.973511)"/>
</clipPath>
<clipPath id="clip1_3103_9375">
<rect width="39" height="39" fill="white" transform="translate(10 5.49988)"/>
</clipPath>
</defs>
</svg>
