<svg width="20" height="27" viewBox="0 0 20 27" fill="none" xmlns="http://www.w3.org/2000/svg">
<path d="M9.42366 25.4545H1.66226C0.749893 25.4545 0 24.6909 0 23.7618V4.23818C0 3.30909 0.749893 2.54545 1.66226 2.54545H3.74947V0H11.2484V2.54545H13.3356C14.248 2.54545 14.9979 3.30909 14.9979 4.23818V12.7273C10.861 12.7273 7.49893 16.1509 7.49893 20.3636C7.49893 22.3236 8.22383 24.1055 9.42366 25.4545ZM14.9979 14L17.81 16.8636L14.9979 19.7273V17.8182C12.6857 17.8182 11.1734 20.3127 12.1983 22.4255L10.836 23.8127C8.63627 20.4273 11.0109 15.9091 14.9979 15.9091V14ZM14.9979 28L12.1858 25.1364L14.9979 22.2727V24.1818C17.31 24.1818 18.8223 21.6873 17.7975 19.5745L19.1598 18.1873C21.3595 21.5727 18.9848 26.0909 14.9979 26.0909V28Z" fill="#33C2C9" fill-opacity="0.5"/>
</svg>
