<svg width="31" height="31" viewBox="0 0 31 31" fill="none" xmlns="http://www.w3.org/2000/svg">
<rect width="30" height="30" transform="translate(0.774902 0.276855)" fill="#33C2C9"/>
<path d="M15.7749 3.27686C22.3914 3.27686 27.7749 7.86115 27.7749 13.4971C27.7749 15.753 26.9424 17.7838 25.2024 19.7847C22.6854 22.8262 17.0559 26.5305 15.7749 27.0972C14.5299 27.6482 14.6739 26.7871 14.7309 26.4471L14.7354 26.4187L14.9064 25.3403C14.9469 25.0192 14.9889 24.5201 14.8674 24.2021C14.7324 23.8511 14.2014 23.6685 13.8114 23.5803C8.0439 22.7821 3.7749 18.5489 3.7749 13.4971C3.7749 7.86115 9.1599 3.27686 15.7749 3.27686ZM11.3079 15.3767H9.0204V11.0192C9.0204 10.9543 8.99596 10.8921 8.9524 10.846C8.90884 10.8 8.8497 10.774 8.7879 10.7736H7.9449C7.91417 10.7736 7.88374 10.7799 7.85535 10.7923C7.82696 10.8046 7.80117 10.8227 7.77944 10.8455C7.75771 10.8683 7.74047 10.8954 7.72871 10.9252C7.71695 10.955 7.7109 10.9869 7.7109 11.0192V16.5071C7.7109 16.5716 7.7364 16.633 7.7769 16.6755V16.6771L7.7799 16.6803L7.7829 16.6834C7.80426 16.7054 7.82958 16.7228 7.8574 16.7344C7.88522 16.746 7.91497 16.7517 7.9449 16.7511H11.3079C11.4369 16.7511 11.5404 16.6409 11.5404 16.5055V15.6239C11.5406 15.5917 11.5347 15.5597 11.5232 15.5298C11.5116 15.4999 11.4945 15.4727 11.4729 15.4498C11.4513 15.4268 11.4257 15.4086 11.3973 15.396C11.369 15.3835 11.3386 15.377 11.3079 15.3767ZM12.4944 10.7736C12.4323 10.7736 12.3728 10.7994 12.3289 10.8455C12.2851 10.8916 12.2604 10.954 12.2604 11.0192V16.5071C12.2604 16.6425 12.3654 16.7511 12.4944 16.7511H13.3374C13.4664 16.7511 13.5699 16.6409 13.5699 16.5071V11.0192C13.5699 10.9543 13.5455 10.8921 13.5019 10.846C13.4583 10.8 13.3992 10.774 13.3374 10.7736H12.4944ZM18.2889 10.7736C18.2268 10.7736 18.1673 10.7994 18.1234 10.8455C18.0796 10.8916 18.0549 10.954 18.0549 11.0192V14.2779L15.6594 10.8838L15.6399 10.8601L15.6249 10.8428L15.6204 10.8381L15.6039 10.8239L15.5949 10.8176L15.5904 10.8145L15.5829 10.8098L15.5709 10.8019H15.5679L15.5634 10.7988L15.5484 10.7925L15.5424 10.7893L15.5274 10.7846H15.5244L15.5199 10.783L15.5064 10.7799H15.4974L15.4929 10.7783H15.4869L15.4839 10.7767H14.6229C14.5611 10.7767 14.5018 10.8024 14.458 10.8481C14.4141 10.8938 14.3893 10.9559 14.3889 11.0207V16.5087C14.3889 16.644 14.4939 16.7527 14.6229 16.7527H15.4629C15.5934 16.7527 15.6984 16.6425 15.6984 16.5087V13.2499L18.0984 16.6503C18.1152 16.673 18.1349 16.6931 18.1569 16.7102L18.1584 16.7117L18.1734 16.7212L18.1794 16.7243L18.1914 16.7306L18.2019 16.7353L18.2094 16.7385L18.2244 16.7432H18.2289C18.2485 16.7485 18.2686 16.7517 18.2889 16.7527H19.1289C19.2594 16.7527 19.3644 16.6425 19.3644 16.5087V11.0192C19.3644 10.954 19.3397 10.8916 19.2959 10.8455C19.252 10.7994 19.1925 10.7736 19.1304 10.7736H18.2889ZM24.0114 11.9023V11.0207C24.0116 10.9885 24.0057 10.9565 23.9942 10.9266C23.9826 10.8967 23.9655 10.8696 23.9439 10.8466C23.9223 10.8237 23.8967 10.8054 23.8683 10.7929C23.84 10.7803 23.8096 10.7738 23.7789 10.7736H20.4159C20.3555 10.7744 20.2977 10.7992 20.2539 10.8428H20.2524L20.2509 10.846L20.2479 10.8507C20.2067 10.8962 20.1831 10.9563 20.1819 11.0192V16.5071C20.1819 16.5716 20.2074 16.633 20.2479 16.6755L20.2509 16.6803L20.2539 16.6834C20.2979 16.7265 20.3557 16.7506 20.4159 16.7511H23.7789C23.9079 16.7511 24.0114 16.6409 24.0114 16.5055V15.6239C24.0116 15.5917 24.0057 15.5597 23.9942 15.5298C23.9826 15.4999 23.9655 15.4727 23.9439 15.4498C23.9223 15.4268 23.8967 15.4086 23.8683 15.396C23.84 15.3835 23.8096 15.377 23.7789 15.3767H21.4899V14.4495H23.7774C23.9064 14.4495 24.0099 14.3393 24.0099 14.2039V13.3223C24.0101 13.2901 24.0042 13.2581 23.9927 13.2282C23.9811 13.1983 23.964 13.1712 23.9424 13.1482C23.9208 13.1252 23.8952 13.107 23.8668 13.0945C23.8385 13.0819 23.8081 13.0754 23.7774 13.0752H21.4899V12.1479H23.7774C23.9064 12.1479 24.0099 12.0377 24.0099 11.9023H24.0114Z" fill="white"/>
</svg>
