<svg width="41" height="41" viewBox="0 0 41 41" fill="none" xmlns="http://www.w3.org/2000/svg">
<g clip-path="url(#clip0_3565_925)">
<path fill-rule="evenodd" clip-rule="evenodd" d="M20.165 0.666747C31.2107 0.666748 40.165 9.62105 40.165 20.6667C40.165 31.7124 31.2107 40.6667 20.165 40.6667C9.11934 40.6667 0.165038 31.7124 0.165038 20.6667C0.165039 9.62105 9.11934 0.666747 20.165 0.666747ZM38.165 20.6667C38.165 10.7256 30.1062 2.66675 20.165 2.66675C10.2239 2.66675 2.16504 10.7256 2.16504 20.6667C2.16504 30.6079 10.2239 38.6667 20.165 38.6667C30.1062 38.6667 38.165 30.6079 38.165 20.6667Z" fill="#242424"/>
<path fill-rule="evenodd" clip-rule="evenodd" d="M20.165 13.6667C20.7173 13.6667 21.165 14.1145 21.165 14.6667L21.165 39.6667C21.165 40.219 20.7173 40.6667 20.165 40.6667C19.6128 40.6667 19.165 40.219 19.165 39.6667L19.165 14.6667C19.165 14.1145 19.6128 13.6667 20.165 13.6667Z" fill="#242424"/>
<path fill-rule="evenodd" clip-rule="evenodd" d="M28.8721 23.3739C28.4816 23.7644 27.8485 23.7644 27.4579 23.3739L20.165 16.081L12.8721 23.3739C12.4816 23.7644 11.8485 23.7644 11.4579 23.3739C11.0674 22.9833 11.0674 22.3502 11.4579 21.9596L19.4579 13.9596C19.8485 13.5691 20.4816 13.5691 20.8721 13.9596L28.8721 21.9596C29.2627 22.3502 29.2627 22.9833 28.8721 23.3739Z" fill="#242424"/>
</g>
<defs>
<clipPath id="clip0_3565_925">
<rect x="40.165" y="0.666748" width="40" height="40" rx="20" transform="rotate(90 40.165 0.666748)" fill="white"/>
</clipPath>
</defs>
</svg>
