<svg width="30" height="29" viewBox="0 0 30 29" fill="none" xmlns="http://www.w3.org/2000/svg">
<path d="M25.9549 26.2891V5.89331H20.3924V0.330811H3.70492V26.2891H-0.00341797V28.1433H12.9757V22.5808H16.6841V28.1433H29.6632V26.2891H25.9549ZM11.1216 18.8725H7.41325V15.1641H11.1216V18.8725ZM11.1216 13.31H7.41325V9.60164H11.1216V13.31ZM11.1216 7.74748H7.41325V4.03914H11.1216V7.74748ZM16.6841 18.8725H12.9757V15.1641H16.6841V18.8725ZM16.6841 13.31H12.9757V9.60164H16.6841V13.31ZM16.6841 7.74748H12.9757V4.03914H16.6841V7.74748ZM24.1007 18.8725H20.3924V15.1641H24.1007V18.8725ZM24.1007 13.31H20.3924V9.60164H24.1007V13.31Z" fill="#414D4E"/>
</svg>
