<svg width="80" height="81" viewBox="0 0 80 81" fill="none" xmlns="http://www.w3.org/2000/svg">
<path d="M53.5031 33.4331L43.5031 23.4331H30.1698C29.2857 23.4331 28.4379 23.7843 27.8127 24.4094C27.1876 25.0345 26.8364 25.8824 26.8364 26.7664V53.4331C26.8364 54.3172 27.1876 55.165 27.8127 55.7901C28.4379 56.4152 29.2857 56.7664 30.1698 56.7664H50.1698C51.0538 56.7664 51.9017 56.4152 52.5268 55.7901C53.1519 55.165 53.5031 54.3172 53.5031 53.4331V33.4331ZM35.1698 51.7664H31.8364V36.7664H35.1698V51.7664ZM41.8364 51.7664H38.5031V41.7664H41.8364V51.7664ZM48.5031 51.7664H45.1698V46.7664H48.5031V51.7664ZM43.5031 35.0998H41.8364V26.7664L50.1698 35.0998H43.5031Z" fill="white"/>
</svg>
