<svg width="32" height="27" viewBox="0 0 32 27" fill="none" xmlns="http://www.w3.org/2000/svg">
<path d="M12.5586 0.585449V2.78337C11.2198 2.25778 9.78426 1.98702 8.34868 1.98702C5.46138 1.98702 2.57409 3.07006 0.364258 5.25205L5.7356 10.5557H7.52604V12.3236C8.91324 13.6933 10.7198 14.4101 12.5425 14.4897V18.1051H7.7196V22.8832C7.7196 24.6352 9.17132 26.0686 10.9456 26.0686H27.0758C29.7534 26.0686 31.9148 23.9344 31.9148 21.2905V0.585449H12.5586ZM10.7682 10.7946V7.37034H7.09053L5.41299 5.71393C6.3496 5.35703 7.34475 5.17347 8.34868 5.17242C10.5101 5.17242 12.5264 6.00062 14.0588 7.49775L16.3331 9.74345L16.0105 10.062C15.6052 10.466 15.1228 10.7867 14.5913 11.0054C14.0597 11.2241 13.4894 11.3365 12.9135 11.3362C12.1554 11.3362 11.4134 11.145 10.7682 10.7946ZM28.6888 21.2905C28.6888 22.1665 27.9629 22.8832 27.0758 22.8832C26.1886 22.8832 25.4628 22.1665 25.4628 21.2905V18.1051H15.7847V13.98C16.7041 13.6137 17.559 13.0722 18.301 12.3396L18.6236 12.021L23.1884 16.5124H25.4628V14.2667L15.7847 4.75831V3.77084H28.6888V21.2905Z" fill="#414D4E"/>
</svg>
