<svg width="81" height="81" viewBox="0 0 81 81" fill="none" xmlns="http://www.w3.org/2000/svg">
<path d="M40.8371 59.2664C48.2335 59.2664 54.2537 53.2462 54.2537 45.8498C54.2537 38.4534 48.2335 32.4331 40.8371 32.4331C33.4387 32.4331 27.4204 38.4534 27.4204 45.8498C27.4204 53.2462 33.4387 59.2664 40.8371 59.2664ZM40.8371 36.2664C46.1213 36.2664 50.4204 40.5655 50.4204 45.8498C50.4204 51.134 46.1213 55.4331 40.8371 55.4331C35.5528 55.4331 31.2537 51.134 31.2537 45.8498C31.2537 40.5655 35.5528 36.2664 40.8371 36.2664ZM38.9204 20.9331H31.2537V31.5093C33.5474 29.9745 36.1772 29.0152 38.9204 28.7129V20.9331ZM50.4204 20.9331H42.7537V28.7129C45.4969 29.0152 48.1268 29.9745 50.4204 31.5093V20.9331Z" fill="white"/>
<path d="M37.04 47.4042L36.143 52.629L40.837 50.1623L45.5309 52.629L44.6339 47.4042L48.4327 43.7012L43.1849 42.9384L40.837 38.1831L38.489 42.9384L33.2412 43.7012L37.04 47.4042Z" fill="white"/>
</svg>
