<svg width="49" height="49" viewBox="0 0 49 49" fill="none" xmlns="http://www.w3.org/2000/svg">
<path d="M8.50342 6.09985C6.28342 6.09985 4.50342 7.87985 4.50342 10.0999V30.0999C4.50342 31.1607 4.92485 32.1781 5.67499 32.9283C6.42514 33.6784 7.44255 34.0999 8.50342 34.0999H24.5034V44.0999L30.5034 38.0999L36.5034 44.0999V34.0999H40.5034C41.5643 34.0999 42.5817 33.6784 43.3318 32.9283C44.082 32.1781 44.5034 31.1607 44.5034 30.0999V10.0999C44.5034 9.03899 44.082 8.02157 43.3318 7.27143C42.5817 6.52128 41.5643 6.09985 40.5034 6.09985H32.5034H8.50342ZM24.5034 10.0999L30.5034 14.0999L36.5034 10.0999V17.0999L42.5034 20.0999L36.5034 23.0999V30.0999L30.5034 26.0999L24.5034 30.0999V23.0999L18.5034 20.0999L24.5034 17.0999V10.0999ZM8.50342 10.0999H18.5034V14.0999H8.50342V10.0999ZM8.50342 18.0999H14.5034V22.0999H8.50342V18.0999ZM8.50342 26.0999H18.5034V30.0999H8.50342V26.0999Z" fill="white"/>
</svg>
