<svg width="92" height="58" viewBox="0 0 92 58" fill="none" xmlns="http://www.w3.org/2000/svg">
<g clip-path="url(#clip0_3424_524)">
<path d="M17.5511 14.368C17.5511 14.368 16.0141 14.4189 16.0141 15.5907C16.0141 16.7625 16.0141 25.6478 16.0141 25.6478C16.0141 25.6478 15.8044 27.2543 17.0019 27.4785C17.2917 27.5328 18.1498 27.5294 18.9393 27.5328C19.8012 27.5396 20.5411 27.5328 20.5411 27.5328C20.5411 27.5328 21.5212 27.6687 21.1932 28.545C20.8653 29.4213 19.7059 33.0793 19.7059 33.0793C19.7059 33.0793 19.3893 34.4141 20.7318 34.4447C21.2047 34.4549 23.0658 34.4447 23.0658 34.4447L25.8918 34.4379C25.8918 34.4379 27.1122 34.6145 27.6042 33.0759C28.0962 31.5407 29.3509 28.4227 29.3509 28.4227C29.3509 28.4227 29.5874 27.5464 30.7582 27.5226C31.7536 27.5022 33.6071 27.509 33.6071 27.509C33.6071 27.509 35.064 27.5939 35.8229 26.4154C36.7611 24.9515 43.5802 16.2293 43.7747 15.9474C43.9692 15.6655 44.5756 14.3612 42.6267 14.3612C42.1805 14.3612 41.6885 14.3476 41.0288 14.3476C39.7435 14.3476 38.5002 14.3374 38.5002 14.3374C38.5002 14.3374 36.7421 14.317 36.006 15.4888C35.2661 16.6606 31.6392 20.998 31.6392 20.998C31.6392 20.998 31.0404 22.0237 29.1488 22.0237C27.2572 22.0237 25.2626 22.0237 25.2626 22.0237C25.2626 22.0237 24.2443 22.1086 24.2443 20.5972C24.2443 18.4744 24.271 15.8794 24.271 15.8794C24.271 15.8794 24.4617 14.3578 22.6539 14.3578C20.8462 14.3578 17.5663 14.3646 17.5663 14.3646L17.5511 14.368Z" fill="#008D94"/>
<path d="M48.8853 14.3511C48.8853 14.3511 47.0737 14.1983 46.5817 15.7369C46.1165 17.1872 39.8275 33.1915 39.8275 33.1915C39.8275 33.1915 39.4652 34.3633 40.6971 34.4346C41.9289 34.5059 45.7427 34.4346 45.7427 34.4346C45.7427 34.4346 46.9746 34.5059 47.6344 33.6296C48.2903 32.7533 49.6213 28.6877 49.6213 28.6877C49.6213 28.6877 49.9303 27.5295 51.574 27.5295H61.0398C61.5242 27.5295 62.4891 27.9813 62.2412 28.8983C61.8903 30.2094 60.8606 32.8043 60.7385 33.1066C60.6165 33.4089 60.3838 34.3191 61.7454 34.4176C62.592 34.4788 65.0138 34.4652 65.0138 34.4652L67.2334 34.4516C67.2334 34.4516 68.3089 34.5501 68.7742 33.0794C69.0755 32.1216 75.0097 15.652 75.0097 15.652C75.0097 15.652 75.1661 14.4496 74.2622 14.3783C73.3584 14.3036 68.839 14.3783 68.839 14.3783C68.839 14.3783 67.9351 14.2322 67.5233 15.3293C67.1114 16.4264 65.0634 21.2188 65.0634 21.2188C65.0634 21.2188 64.5485 22.1325 63.4921 22.1665C62.9124 22.1868 53.4771 22.1665 53.4771 22.1665C53.4771 22.1665 52.249 22.1155 52.5732 20.9233C52.8898 19.7516 54.3237 16.26 54.4648 15.8728C54.606 15.4856 54.7013 14.3172 53.2139 14.3409C52.005 14.3613 48.8777 14.3409 48.8777 14.3409L48.8853 14.3511Z" fill="#E41B25"/>
<path d="M91.031 25.3219C89.0669 20.706 84.8946 16.3212 78.4645 12.8805C77.7247 12.7345 77.2327 13.1013 77.9726 13.8315C81.9656 16.5012 84.1967 19.6056 85.6306 22.8221C90.5542 33.8743 76.0085 42.9871 53.1372 43.1807C42.695 43.269 32.1461 41.5164 23.4926 38.4935H22.2607L23.0807 39.5192C32.7067 44.0026 45.3761 47.0221 58.1332 46.9134C81.2867 46.713 96.0156 37.0466 91.031 25.3253V25.3219Z" fill="#008D94"/>
<path d="M21.9825 37.342C21.9825 37.342 19.9574 37.033 20.6973 38.2047C21.4371 39.3765 23.5385 41.9681 23.672 42.1379C23.7788 42.3689 24.9954 43.004 25.4149 41.8356C25.5637 41.4212 25.3958 41.0306 25.4759 40.6502C25.5217 40.4396 25.598 40.2426 25.7505 40.0762C25.8421 39.9777 25.9603 39.8894 26.1167 39.8113C26.4027 39.672 26.9557 39.2679 27.1502 39.1829C27.5773 39.0029 27.8596 38.6021 27.8786 38.2625C27.9091 37.8006 27.5888 37.4779 26.8451 37.4371C26.5247 37.4202 21.9749 37.342 21.9749 37.342H21.9825Z" fill="#008D94"/>
<path d="M26.3647 40.9458C26.3647 40.9458 25.6362 40.7828 25.5142 41.4485C25.4188 41.9647 25.0718 41.0137 25.0718 41.0137L25.3464 39.9031L26.563 40.5009L26.3647 40.9492V40.9458Z" fill="#008D94"/>
<path d="M27.6917 39.8214C27.6917 39.8214 26.9404 39.458 27.5087 38.9689C27.9282 38.6055 27.0167 38.8432 27.0167 38.8432L26.0938 39.6278L27.2951 40.246L27.6917 39.8248V39.8214Z" fill="#008D94"/>
<path d="M0.968448 21.7353C2.93255 26.3545 7.10483 30.736 13.5311 34.1766C14.2709 34.3227 14.7629 33.9592 14.023 33.2256C10.03 30.5526 7.79894 27.4516 6.36496 24.2351C1.44517 13.1829 15.9948 4.07008 38.8622 3.88327C49.3044 3.79836 59.8533 5.54755 68.5068 8.57043H69.7387L68.9187 7.54469C59.2965 3.06132 46.6233 0.0384372 33.87 0.147125C10.7127 0.350915 -4.01617 10.0139 0.968448 21.7353Z" fill="#E41B25"/>
<path d="M70.0171 9.72504C70.0171 9.72504 72.0422 10.0341 71.3023 8.86233C70.5624 7.69054 68.461 5.09902 68.3275 4.92579C68.2208 4.69483 67.0042 4.05969 66.5846 5.22808C66.4359 5.64245 66.6037 6.03305 66.5236 6.41346C66.4779 6.62404 66.4016 6.82104 66.249 6.98747C66.1575 7.08597 66.0393 7.17427 65.8829 7.25239C65.5969 7.39165 65.0439 7.79583 64.8456 7.88075C64.4184 8.06076 64.1362 8.46155 64.1133 8.8012C64.0828 9.26312 64.4032 9.58579 65.1469 9.62654C65.4672 9.64353 70.0171 9.72165 70.0171 9.72165V9.72504Z" fill="#E41B25"/>
<path d="M65.6353 6.11817C65.6353 6.11817 66.3638 6.28121 66.4858 5.61889C66.5811 5.10262 66.9282 6.05364 66.9282 6.05364L66.6536 7.16429L65.437 6.56651L65.6353 6.11817Z" fill="#E41B25"/>
<path d="M64.3081 7.24563C64.3081 7.24563 65.0594 7.60905 64.4912 8.09815C64.0717 8.46497 64.9831 8.22722 64.9831 8.22722L65.9061 7.44263L64.7047 6.82446L64.3081 7.24563Z" fill="#E41B25"/>
<path d="M12.208 57.0416V54.4807L9.30957 50.9993H10.5147L12.0021 52.8164C12.2538 53.1289 12.5093 53.4685 12.7687 53.8421C13.0166 53.4957 13.2912 53.1425 13.5925 52.7756L15.0531 50.9993H16.2011L13.2034 54.4807V57.0416H12.208Z" fill="#E41B25"/>
<path d="M18.3901 57.0416V50.9993H23.821V51.7125H19.3893V53.5534H23.5388V54.2667H19.3893V56.3182H23.9926V57.0382H18.3939L18.3901 57.0416Z" fill="#E41B25"/>
<path d="M26.3418 54.0969C26.3418 53.1629 26.6431 52.4055 27.2457 51.8213C27.8902 51.2031 28.7864 50.8906 29.9382 50.8906C30.6247 50.8906 31.2463 51.0197 31.7993 51.2812C32.3638 51.5462 32.7947 51.9198 33.0884 52.3987C33.3821 52.8776 33.527 53.421 33.527 54.0256C33.527 54.6302 33.3897 55.1329 33.1151 55.6016C32.8062 56.1212 32.3561 56.5084 31.7688 56.77C31.2044 57.0213 30.5942 57.147 29.9382 57.147C29.2441 57.147 28.6186 57.0145 28.0618 56.7496C27.5012 56.4779 27.0702 56.0975 26.7766 55.6084C26.4905 55.1328 26.3456 54.6302 26.3456 54.0969H26.3418ZM27.3601 54.1105C27.3601 54.7728 27.5775 55.3231 28.0122 55.7544C28.4813 56.2197 29.1182 56.4541 29.9306 56.4541C30.7429 56.4541 31.4218 56.2095 31.8832 55.7238C32.3027 55.2857 32.5125 54.7185 32.5125 54.0256C32.5125 53.0134 32.1044 52.3036 31.2921 51.8926C30.8916 51.6922 30.4454 51.5903 29.9535 51.5903C29.0687 51.5903 28.4012 51.8416 27.9588 52.3443C27.566 52.7825 27.3715 53.3735 27.3715 54.1105H27.3601Z" fill="#E41B25"/>
<path d="M37.4057 57.0416L35.4072 50.9993H36.4255L37.5658 54.963C37.6993 55.4215 37.8061 55.8325 37.8862 56.1993L38.2218 55.0819L39.6596 50.9993H40.8495L41.925 54.0561C42.1958 54.8339 42.3941 55.5506 42.5085 56.1993C42.5886 55.8834 42.7144 55.4453 42.8823 54.8815L44.0683 51.0027H45.0637L43.0043 57.045H42.0432L40.4681 52.4428C40.3308 52.042 40.2546 51.8076 40.2317 51.7329C40.1592 51.9978 40.0867 52.2356 40.0143 52.4428L38.4163 57.045H37.4095L37.4057 57.0416Z" fill="#E41B25"/>
<path d="M56.3486 57.0416V50.9993H57.344V53.4719H61.2417V50.9993H62.2371V57.0416H61.2417V54.192H57.344V57.0416H56.3486Z" fill="#E41B25"/>
<path d="M66.4896 57.0416L64.4912 50.9993H65.5095L66.6498 54.963C66.7833 55.4215 66.8901 55.8325 66.9702 56.1993L67.3058 55.0819L68.7436 50.9993H69.9335L71.009 54.0561C71.2798 54.8339 71.4781 55.5506 71.5925 56.1993C71.6726 55.8834 71.7984 55.4453 71.9662 54.8815L73.1523 51.0027H74.1477L72.0883 57.045H71.1272L69.5521 52.4428C69.4148 52.042 69.3385 51.8076 69.3156 51.7329C69.2432 51.9978 69.1707 52.2356 69.0983 52.4428L67.5003 57.045H66.4934L66.4896 57.0416Z" fill="#E41B25"/>
<path d="M75.5283 57.0416L78.4154 50.9993H79.487L82.5609 57.0416H81.4283L80.5511 55.2109H77.4161L76.5924 57.0416H75.5321H75.5283ZM77.6984 54.5554H80.2422L79.4642 52.8877C79.2201 52.3715 79.0446 51.9537 78.9302 51.6344C78.8311 52.0386 78.6976 52.4224 78.526 52.7858L77.7022 54.5554H77.6984Z" fill="#E41B25"/>
</g>
<defs>
<clipPath id="clip0_3424_524">
<rect width="92" height="57" fill="white" transform="translate(0 0.146973)"/>
</clipPath>
</defs>
</svg>
