<svg width="97" height="98" viewBox="0 0 97 98" fill="none" xmlns="http://www.w3.org/2000/svg">
<g clip-path="url(#clip0_785_6712)">
<rect x="0.00488281" y="0.293945" width="97" height="97" rx="20" fill="url(#paint0_linear_785_6712)"/>
<g clip-path="url(#clip1_785_6712)">
<path d="M22.8339 34.4706C22.8339 34.4706 21.4473 34.5224 21.4473 35.7148C21.4473 36.9071 21.4473 45.9482 21.4473 45.9482C21.4473 45.9482 21.2581 47.583 22.3384 47.8111C22.5999 47.8664 23.3741 47.8629 24.0863 47.8664C24.8639 47.8733 25.5314 47.8664 25.5314 47.8664C25.5314 47.8664 26.4157 48.0046 26.1198 48.8963C25.8239 49.7879 24.7779 53.5101 24.7779 53.5101C24.7779 53.5101 24.4923 54.8684 25.7035 54.8995C26.1301 54.9099 27.8092 54.8995 27.8092 54.8995L30.3587 54.8926C30.3587 54.8926 31.4597 55.0723 31.9036 53.5067C32.3474 51.9445 33.4794 48.7719 33.4794 48.7719C33.4794 48.7719 33.6928 47.8802 34.7491 47.856C35.6471 47.8353 37.3193 47.8422 37.3193 47.8422C37.3193 47.8422 38.6336 47.9286 39.3183 46.7293C40.1647 45.2397 46.3167 36.3645 46.4922 36.0777C46.6676 35.7908 47.2147 34.4637 45.4565 34.4637C45.0539 34.4637 44.6101 34.4498 44.0149 34.4498C42.8553 34.4498 41.7337 34.4395 41.7337 34.4395C41.7337 34.4395 40.1475 34.4187 39.4835 35.6111C38.816 36.8034 35.5439 41.2169 35.5439 41.2169C35.5439 41.2169 35.0037 42.2606 33.2971 42.2606C31.5905 42.2606 29.791 42.2606 29.791 42.2606C29.791 42.2606 28.8723 42.347 28.8723 40.809C28.8723 38.649 28.8964 36.0085 28.8964 36.0085C28.8964 36.0085 29.0685 34.4602 27.4376 34.4602C25.8067 34.4602 22.8477 34.4671 22.8477 34.4671L22.8339 34.4706Z" fill="white"/>
<path d="M51.1027 34.4531C51.1027 34.4531 49.4684 34.2976 49.0245 35.8632C48.6048 37.3389 42.9311 53.624 42.9311 53.624C42.9311 53.624 42.6042 54.8164 43.7155 54.8889C44.8269 54.9615 48.2676 54.8889 48.2676 54.8889C48.2676 54.8889 49.3789 54.9615 49.9742 54.0698C50.566 53.1782 51.7668 49.0412 51.7668 49.0412C51.7668 49.0412 52.0455 47.8627 53.5284 47.8627H62.0682C62.5052 47.8627 63.3757 48.3224 63.1521 49.2555C62.8355 50.5896 61.9065 53.23 61.7964 53.5376C61.6863 53.8452 61.4764 54.7714 62.7048 54.8717C63.4686 54.9339 65.6535 54.92 65.6535 54.92L67.6559 54.9062C67.6559 54.9062 68.6262 55.0064 69.046 53.51C69.3178 52.5353 74.6715 35.7768 74.6715 35.7768C74.6715 35.7768 74.8126 34.5533 73.9971 34.4808C73.1817 34.4047 69.1045 34.4808 69.1045 34.4808C69.1045 34.4808 68.289 34.3322 67.9174 35.4485C67.5458 36.5648 65.6982 41.4413 65.6982 41.4413C65.6982 41.4413 65.2337 42.371 64.2806 42.4056C63.7576 42.4263 55.2453 42.4056 55.2453 42.4056C55.2453 42.4056 54.1374 42.3537 54.4299 41.1406C54.7155 39.9483 56.0092 36.3954 56.1365 36.0014C56.2638 35.6074 56.3498 34.4186 55.0079 34.4427C53.9172 34.4635 51.0958 34.4427 51.0958 34.4427L51.1027 34.4531Z" fill="white"/>
<path d="M89.1262 45.6166C87.3542 40.9198 83.5901 36.458 77.7891 32.957C77.1216 32.8084 76.6777 33.1816 77.3452 33.9247C80.9476 36.6412 82.9605 39.8 84.2542 43.073C88.6961 54.3191 75.5733 63.5917 54.9394 63.7887C45.5188 63.8786 36.0018 62.0952 28.1948 59.0193H27.0835L27.8232 60.0631C36.5076 64.6251 47.9376 67.6976 59.4467 67.587C80.3352 67.383 93.6232 57.547 89.1262 45.6201V45.6166Z" fill="white"/>
<path d="M26.8321 57.8481C26.8321 57.8481 25.0051 57.5336 25.6726 58.7259C26.3401 59.9183 28.2359 62.5552 28.3563 62.728C28.4527 62.9631 29.5502 63.6093 29.9287 62.4205C30.0629 61.9988 29.9115 61.6014 29.9838 61.2143C30.0251 61 30.0939 60.7996 30.2315 60.6302C30.3141 60.53 30.4207 60.4401 30.5618 60.3606C30.8199 60.2189 31.3188 59.8077 31.4942 59.7213C31.8796 59.5381 32.1342 59.1303 32.1514 58.7847C32.1789 58.3146 31.8899 57.9863 31.219 57.9448C30.93 57.9275 26.8252 57.8481 26.8252 57.8481H26.8321Z" fill="white"/>
<path d="M30.7855 61.5141C30.7855 61.5141 30.1284 61.3482 30.0183 62.0256C29.9322 62.551 29.6191 61.5833 29.6191 61.5833L29.8669 60.4531L30.9645 61.0614L30.7855 61.5176V61.5141Z" fill="white"/>
<path d="M31.9827 60.3709C31.9827 60.3709 31.3049 60.0011 31.8175 59.5034C32.196 59.1336 31.3737 59.3756 31.3737 59.3756L30.541 60.1739L31.6248 60.8029L31.9827 60.3744V60.3709Z" fill="white"/>
<path d="M7.8741 41.9668C9.64606 46.6671 13.4102 51.1255 19.2078 54.6265C19.8753 54.7751 20.3191 54.4053 19.6516 53.6588C16.0492 50.9388 14.0364 47.7834 12.7427 44.5105C8.30419 33.2644 21.4305 23.9917 42.0609 23.8017C51.4815 23.7152 60.9985 25.4951 68.8055 28.571H69.9168L69.177 27.5273C60.4962 22.9653 49.0627 19.8894 37.557 20C16.6651 20.2073 3.37711 30.0399 7.8741 41.9668Z" fill="white"/>
<path d="M70.1678 29.7463C70.1678 29.7463 71.9949 30.0608 71.3274 28.8685C70.6599 27.6761 68.764 25.0392 68.6436 24.8629C68.5473 24.6279 67.4497 23.9816 67.0712 25.1705C66.937 25.5921 67.0884 25.9896 67.0162 26.3767C66.9749 26.5909 66.9061 26.7914 66.7684 26.9607C66.6859 27.061 66.5792 27.1508 66.4381 27.2303C66.1801 27.372 65.6812 27.7833 65.5022 27.8697C65.1169 28.0529 64.8623 28.4607 64.8416 28.8063C64.8141 29.2763 65.1031 29.6046 65.7741 29.6461C66.0631 29.6634 70.1678 29.7429 70.1678 29.7429V29.7463Z" fill="white"/>
<path d="M66.2146 26.0754C66.2146 26.0754 66.8717 26.2413 66.9818 25.5674C67.0679 25.0421 67.381 26.0098 67.381 26.0098L67.1332 27.1399L66.0356 26.5316L66.2146 26.0754Z" fill="white"/>
<path d="M65.0171 27.2235C65.0171 27.2235 65.6949 27.5933 65.1822 28.091C64.8038 28.4642 65.6261 28.2223 65.6261 28.2223L66.4587 27.4239L65.3749 26.7949L65.0171 27.2235Z" fill="white"/>
<path d="M18.0139 77.8925V75.2866L15.3989 71.7441H16.4862L17.8281 73.5931C18.0551 73.9111 18.2857 74.2567 18.5196 74.6369C18.7433 74.2844 18.991 73.9249 19.2628 73.5517L20.5806 71.7441H21.6163L18.9119 75.2866V77.8925H18.0139Z" fill="white"/>
<path d="M23.5913 77.8925V71.7441H28.4909V72.4699H24.4928V74.3431H28.2363V75.0689H24.4928V77.1564H28.6457V77.8891H23.5947L23.5913 77.8925Z" fill="white"/>
<path d="M30.7651 74.8963C30.7651 73.9459 31.037 73.1752 31.5806 72.5808C32.1621 71.9518 32.9706 71.6338 34.0097 71.6338C34.629 71.6338 35.1899 71.7651 35.6888 72.0312C36.198 72.3008 36.5868 72.681 36.8517 73.1683C37.1167 73.6556 37.2474 74.2086 37.2474 74.8238C37.2474 75.4389 37.1236 75.9504 36.8758 76.4274C36.5971 76.9562 36.1911 77.3502 35.6613 77.6163C35.152 77.872 34.6015 77.9999 34.0097 77.9999C33.3835 77.9999 32.8192 77.8651 32.3169 77.5955C31.8111 77.319 31.4223 76.932 31.1574 76.4343C30.8993 75.9504 30.7686 75.4389 30.7686 74.8963H30.7651ZM31.6838 74.9102C31.6838 75.5841 31.8799 76.144 32.2722 76.5829C32.6954 77.0564 33.27 77.2949 34.0028 77.2949C34.7357 77.2949 35.3481 77.046 35.7645 76.5518C36.143 76.106 36.3322 75.5288 36.3322 74.8238C36.3322 73.7938 35.964 73.0715 35.2312 72.6533C34.8699 72.4494 34.4673 72.3457 34.0235 72.3457C33.2252 72.3457 32.6231 72.6015 32.224 73.113C31.8696 73.5588 31.6941 74.1602 31.6941 74.9102H31.6838Z" fill="white"/>
<path d="M40.7468 77.8925L38.9438 71.7441H39.8625L40.8913 75.7774C41.0117 76.244 41.108 76.6621 41.1803 77.0354L41.4831 75.8984L42.7802 71.7441H43.8537L44.824 74.8546C45.0683 75.6461 45.2472 76.3753 45.3504 77.0354C45.4227 76.714 45.5362 76.2682 45.6876 75.6944L46.7577 71.7476H47.6557L45.7977 77.896H44.9307L43.5097 73.213C43.3858 72.8052 43.317 72.5667 43.2963 72.4907C43.231 72.7602 43.1656 73.0022 43.1002 73.213L41.6586 77.896H40.7502L40.7468 77.8925Z" fill="white"/>
<path d="M57.8364 77.8925V71.7441H58.7344V74.2602H62.2508V71.7441H63.1489V77.8925H62.2508V74.9929H58.7344V77.8925H57.8364Z" fill="white"/>
<path d="M66.9855 77.8925L65.1826 71.7441H66.1013L67.13 75.7774C67.2505 76.244 67.3468 76.6621 67.4191 77.0354L67.7219 75.8984L69.019 71.7441H70.0925L71.0628 74.8546C71.3071 75.6461 71.486 76.3753 71.5892 77.0354C71.6615 76.714 71.775 76.2682 71.9264 75.6944L72.9964 71.7476H73.8945L72.0365 77.896H71.1694L69.7484 73.213C69.6246 72.8052 69.5557 72.5667 69.5351 72.4907C69.4697 72.7602 69.4044 73.0022 69.339 73.213L67.8973 77.896H66.989L66.9855 77.8925Z" fill="white"/>
<path d="M75.1396 77.8925L77.7443 71.7441H78.7111L81.4843 77.8925H80.4624L79.6711 76.0297H76.8428L76.0996 77.8925H75.1431H75.1396ZM77.0974 75.3627H79.3924L78.6905 73.6657C78.4702 73.1404 78.312 72.7153 78.2088 72.3904C78.1193 72.8017 77.9989 73.1922 77.844 73.562L77.1009 75.3627H77.0974Z" fill="white"/>
</g>
</g>
<defs>
<linearGradient id="paint0_linear_785_6712" x1="48.5049" y1="0.293945" x2="48.5049" y2="97.2939" gradientUnits="userSpaceOnUse">
<stop stop-color="#5CAAA8"/>
<stop offset="1" stop-color="#28CAD1"/>
</linearGradient>
<clipPath id="clip0_785_6712">
<rect x="0.00488281" y="0.293945" width="97" height="97" rx="20" fill="white"/>
</clipPath>
<clipPath id="clip1_785_6712">
<rect width="83" height="58" fill="white" transform="translate(7 20)"/>
</clipPath>
</defs>
</svg>
