<?xml version="1.0" encoding="utf-8"?>
<!-- Generator: Adobe Illustrator 23.0.2, SVG Export Plug-In . SVG Version: 6.00 Build 0)  -->
<svg version="1.1" id="圖層_2" xmlns="http://www.w3.org/2000/svg" xmlns:xlink="http://www.w3.org/1999/xlink" x="0px" y="0px"
	 viewBox="0 0 418.5 411" style="enable-background:new 0 0 418.5 411;" xml:space="preserve">
<path d="M0,177h75c0,0,11-107,127-107c43.1,0,77.9,23.1,100.8,44.6l-61.1,61.1h176.8V3.5L354,68c0,0-52-68-156-68C82,0,0,99,0,177z"
	/>
<path d="M418.5,234h-75c0,0-11,107-127,107c-43.1,0-77.9-23.1-100.8-44.6l61.1-61.1H0v172.2L64.5,343c0,0,52,68,156,68
	C336.5,411,418.5,312,418.5,234z"/>
</svg>
